HIERARCHY
ROOT ui
{
	 OFFSET 0 0 0
	 CHANNELS 3 XPosition YPosition Z Position
	 EndSite
	 {
	 OFFSET 0 -1 0
	 }
}
ROOT li
{
	 OFFSET 0 0 0
	 CHANNELS 3 XPosition YPosition Z Position
	 EndSite
	 {
	 OFFSET 0 -1 0
	 }
}
ROOT ul
{
	 OFFSET 0 0 0
	 CHANNELS 3 XPosition YPosition Z Position
	 EndSite
	 {
	 OFFSET 0 -1 0
	 }
}
ROOT ll
{
	 OFFSET 0 0 0
	 CHANNELS 3 XPosition YPosition Z Position
	 EndSite
	 {
	 OFFSET 0 -1 0
	 }
}
ROOT tt
{
	 OFFSET 0 0 0
	 CHANNELS 3 XPosition YPosition Z Position
	 EndSite
	 {
	 OFFSET 0 -1 0
	 }
}
ROOT tb
{
	 OFFSET 0 0 0
	 CHANNELS 3 XPosition YPosition Z Position
	 EndSite
	 {
	 OFFSET 0 -1 0
	 }
}
ROOT td
{
	 OFFSET 0 0 0
	 CHANNELS 3 XPosition YPosition Z Position
	 EndSite
	 {
	 OFFSET 0 -1 0
	 }
}
ROOT v
{
	 OFFSET 0 0 0
	 CHANNELS 3 XPosition YPosition Z Position
	 EndSite
	 {
	 OFFSET 0 -1 0
	 }
}
ROOT bn
{
	 OFFSET 0 0 0
	 CHANNELS 3 XPosition YPosition Z Position
	 EndSite
	 {
	 OFFSET 0 -1 0
	 }
}
MOTION
Frames: 16
Frame Time: 0.002
-0.002938488960266113	-2.690269947052002E-4	0		0.4444302978515625	-2.365047607421875	0		-1.08016064453125	-0.04179661560058594	0		-0.8456682739257813	-2.3547236328125	0		1.4711318359375	-0.5419116821289063	0		3.085900634765625	0.04553957748413086	0		4.5214619140625	0.05391426086425781	0		5.58914111328125	0.1156639633178711	0		-0.251471435546875	5.91890869140625	0		
0.021527225494384766	-8.728629946708679E-4	0		0.46002435302734374	-2.359450439453125	0		-1.012797119140625	-0.04737218475341797	0		-0.8241439208984375	-2.35225634765625	0		1.4706015625	-0.5419536743164063	0		3.087076904296875	0.032448383331298826	0		4.51677587890625	0.04695161056518555	0		5.5844326171875	0.10769688415527344	0		-0.2519732666015625	5.9188740234375	0		
-0.00398705792427063	-3.4284499287605283E-4	0		0.41638995361328124	-2.363511962890625	0		-1.0911614990234375	-0.0396337890625	0		-0.8138604736328126	-2.360538818359375	0		1.470078369140625	-0.5419989013671875	0		3.090691650390625	0.03830306625366211	0		4.50046435546875	0.056253536224365235	0		5.58809326171875	0.115539306640625	0		-0.2524661865234375	5.9188369140625	0		
0.020506772994995117	-9.524149894714355E-4	0		0.4428487548828125	-2.3651689453125	0		-1.08477685546875	-0.044827281951904295	0		-0.8744246826171875	-2.36221044921875	0		1.4496038818359376	-0.5405926513671875	0		3.10516552734375	0.03690573883056641	0		4.515755859375	0.046828502655029296	0		5.58759423828125	0.11547039794921875	0		-0.25293637084960935	5.91879736328125	0		
-0.00495359992980957	-4.2740398645401003E-4	0		0.39256442260742186	-2.356079345703125	0		-1.1140772705078126	-0.03720729446411133	0		-0.8816063842773437	-2.349093505859375	0		1.454973388671875	-0.5477785034179687	0		3.08388623046875	0.04532150650024414	0		4.50845068359375	0.053918670654296875	0		5.5871279296875	0.11539752197265625	0		-0.25337216186523437	5.9187548828125	0		
0.019615768432617187	-0.0010419239997863769	0		0.44193243408203126	-2.365262939453125	0		-1.0826009521484374	-0.04197399139404297	0		-0.88408837890625	-2.35108837890625	0		1.44870703125	-0.5406974487304688	0		3.10427490234375	0.03678319549560547	0		4.51320751953125	0.06173247528076172	0		5.58670458984375	0.1153212661743164	0		-0.25376397705078124	5.9187109375	0		
-0.005751323223114013	-5.204150080680847E-4	0		0.43175296020507814	-2.35608740234375	0		-1.0929266357421874	-0.03978817367553711	0		-0.8156751098632813	-2.36069921875	0		1.462144775390625	-0.5490695190429687	0		3.08892822265625	0.03805949783325195	0		4.5076533203125	0.053775600433349606	0		5.58633154296875	0.11524248504638672	0		-0.2541042327880859	5.9186650390625	0		
0.018925355911254882	-0.0011377079486846924	0		0.4303773498535156	-2.35811474609375	0		-1.0863592529296875	-0.044988189697265625	0		-0.8997105102539062	-2.34683349609375	0		1.4587344970703124	-0.5530567626953125	0		3.094655517578125	0.03985648345947266	0		4.51417578125	0.04654402923583984	0		5.586015625	0.11516226959228516	0		-0.25536415100097654	5.919640625	0		
-0.006323861122131348	-6.167330145835877E-4	0		0.4409458923339844	-2.3654140625	0		-1.086615234375	-0.04503011703491211	0		-0.8075046997070312	-2.370988525390625	0		1.4474329833984374	-0.5548623657226562	0		3.0665439453125	0.04642655181884765	0		4.50708154296875	0.05362751770019531	0		5.58576025390625	0.11508203125	0		-0.2536319122314453	5.917548828125	0		
0.024612918853759765	0.0046286568641662595	0		0.4448307189941406	-2.361555908203125	0		-1.1056884765625	-0.039639564514160154	0		-0.8832347412109375	-2.34930517578125	0		1.4533958740234374	-0.5480560302734375	0		3.13219873046875	0.038860496520996095	0		4.51268359375	0.04442060852050781	0		5.5897275390625	0.12191040802001953	0		-0.238589111328125	5.9261591796875	0		
-4.8507800698280334E-4	0.006152668952941895	0		0.43285296630859377	-2.354331787109375	0		-1.0797772216796875	-0.03827140045166016	0		-0.8166202392578125	-2.360869140625	0		1.46707958984375	-0.5564260864257813	0		3.08533447265625	0.050865917205810546	0		4.5019462890625	0.06159672164916992	0		5.5854423828125	0.11492733001708984	0		-0.25486174011230467	5.91848193359375	0		
0.018285966873168944	-0.0013215780258178712	0		0.44052304077148435	-2.365556640625	0		-1.0869996337890624	-0.04514739990234375	0		-0.8536651000976563	-2.359065185546875	0		1.458082763671875	-0.5532727661132812	0		3.08797314453125	0.0377412338256836	0		4.50874365234375	0.05537146377563477	0		5.58537890625	0.11485420227050781	0		-0.2548944854736328	5.9184404296875	0		
-0.006713582992553711	-7.937080264091491E-4	0		0.43945932006835936	-2.36757763671875	0		-1.0870059814453126	-0.04518355178833008	0		-0.8228510131835938	-2.36680712890625	0		1.463935546875	-0.5594573974609375	0		3.071971435546875	0.03804795455932617	0		4.50355712890625	0.04742213821411133	0		5.585373046875	0.11478321838378906	0		-0.25584658813476563	5.91942236328125	0		
0.018326215744018555	-0.0014050799608230592	0		0.4146141357421875	-2.362052734375	0		-1.122927734375	-0.043399120330810545	0		-0.8906166381835937	-2.35729638671875	0		1.4440069580078125	-0.5580505981445313	0		3.088013671875	0.03762618637084961	0		4.5067392578125	0.05328792953491211	0		5.585419921875	0.11471348571777344	0		-0.2547934112548828	5.918359375	0		
-0.003508802890777588	0.002053697109222412	0		0.44266342163085937	-2.36373486328125	0		-1.07971142578125	-0.03841767883300781	0		-0.8427549438476563	-2.36742626953125	0		1.447162841796875	-0.5551688232421875	0		3.082265869140625	0.044704166412353516	0		4.51201171875	0.06110793304443359	0		5.58551171875	0.11464433288574219	0		-0.2404493865966797	5.9279970703125	0		
-0.0064500470161437985	-9.203330278396607E-4	0		0.4329866638183594	-2.354554443359375	0		-1.0836754150390624	-0.04236363983154297	0		-0.8554993286132813	-2.361170654296875	0		1.46419091796875	-0.55960546875	0		3.0882314453125	0.03751157760620117	0		4.52109033203125	0.0588389778137207	0		5.585638671875	0.11457511901855469	0		-0.2554967956542969	5.91929931640625	0		
